<?xml version="1.0" encoding="UTF-8"?>
<svg version="1.1" xmlns="http://www.w3.org/2000/svg" width="500" height="500">
<path d="M0 0 C165 0 330 0 500 0 C500 165 500 330 500 500 C335 500 170 500 0 500 C0 335 0 170 0 0 Z " fill="#000000" transform="translate(0,0)"/>
<path d="M0 0 C5.64885497 4.16880564 8.14550717 10.55303341 10.9140625 16.8203125 C11.06101562 16.25183594 11.20796875 15.68335938 11.359375 15.09765625 C13.48284485 7.78755026 16.76642999 2.53288226 23.3515625 -1.4921875 C33.48850512 -6.29389716 44.60377944 -6.79514874 55.3515625 -3.6171875 C63.53667245 -0.46652607 68.73820193 4.22076173 72.3203125 12.21875 C72.9140625 14.8203125 72.9140625 14.8203125 72.9140625 23.8203125 C65.6540625 23.8203125 58.3940625 23.8203125 50.9140625 23.8203125 C49.9240625 20.8503125 48.9340625 17.8803125 47.9140625 14.8203125 C44.73584715 13.23120483 41.37466521 13.41610276 37.9140625 13.8203125 C35.23974761 15.63194517 34.95485891 16.69792327 33.9140625 19.8203125 C33.68978407 22.77475677 33.72891712 25.73320122 33.7265625 28.6953125 C33.71431641 29.49839844 33.70207031 30.30148438 33.68945312 31.12890625 C33.67882389 35.43020439 33.75971796 38.96516963 35.9140625 42.8203125 C39.04113209 44.3838473 42.49388693 44.21989737 45.9140625 43.8203125 C49.91186048 41.64093309 49.91186048 41.64093309 50.9140625 33.8203125 C58.1740625 33.8203125 65.4340625 33.8203125 72.9140625 33.8203125 C72.9140625 42.33862897 71.6747073 47.38967356 66.6640625 54.1328125 C59.58397969 61.05198434 51.7931955 62.03939048 42.2890625 62.1328125 C40.84853516 62.17631836 40.84853516 62.17631836 39.37890625 62.22070312 C31.43477361 62.29076671 26.00751363 60.20022595 19.2265625 56.2578125 C15.52223107 52.35324694 13.31439316 47.60447671 10.9140625 42.8203125 C9.35800003 44.81387659 7.9522595 46.75097802 6.73046875 48.96875 C3.2336364 55.17807847 -1.11262982 59.17009315 -7.99804688 61.36328125 C-19.09957391 63.79336294 -32.40405689 63.50404906 -42.2578125 57.49609375 C-46.53161989 53.80411658 -49.04528252 50.08152723 -51.0859375 44.8203125 C-51.44300781 43.95921875 -51.80007812 43.098125 -52.16796875 42.2109375 C-54.77839241 32.56903224 -54.92955326 18.7608382 -50.34765625 9.7578125 C-39.21504488 -7.33746688 -17.36701437 -9.82179465 0 0 Z " fill="#FAFAFA" transform="translate(294.0859375,223.1796875)"/>
<path d="M0 0 C6.579375 -0.061875 13.15875 -0.12375 19.9375 -0.1875 C21.99605225 -0.21481201 24.05460449 -0.24212402 26.17553711 -0.27026367 C27.83446672 -0.27903773 29.49340286 -0.28667948 31.15234375 -0.29296875 C31.99156372 -0.30831665 32.83078369 -0.32366455 33.69543457 -0.33947754 C39.86754438 -0.34216926 46.82059624 0.16648974 51.62950134 4.45222473 C55.19436125 8.64077735 56.30436785 11.40939746 56.21484375 16.91015625 C55.62151436 22.68163303 52.10094325 26.23156566 48 30 C48.9075 30.556875 49.815 31.11375 50.75 31.6875 C56.10169492 35.49543677 56.10169492 35.49543677 58 39 C58.80397861 45.4227954 58.92194722 51.59041763 55 57 C50.11755736 61.88244264 44.04476012 64.11776254 37.23632812 64.34057617 C35.50122967 64.33983762 33.76607614 64.3237172 32.03125 64.29296875 C31.21366211 64.28994751 30.39607422 64.28692627 29.55371094 64.28381348 C26.53567659 64.26826382 23.51782395 64.22638121 20.5 64.1875 C13.735 64.125625 6.97 64.06375 0 64 C0 42.88 0 21.76 0 0 Z " fill="#FCFCFC" transform="translate(136,220)"/>
<path d="M0 0 C6.07191707 3.84853857 10.37790387 8.89265777 12 16 C12 18.97 12 21.94 12 25 C4.74 25 -2.52 25 -10 25 C-10.99 22.03 -11.98 19.06 -13 16 C-16.17821535 14.41089233 -19.53939729 14.59579026 -23 15 C-25.67431489 16.81163267 -25.95920359 17.87761077 -27 21 C-27.22427843 23.95444427 -27.18514538 26.91288872 -27.1875 29.875 C-27.20586914 31.07962891 -27.20586914 31.07962891 -27.22460938 32.30859375 C-27.23523861 36.60989189 -27.15434454 40.14485713 -25 44 C-21.87293041 45.5635348 -18.42017557 45.39958487 -15 45 C-11.00220202 42.82062059 -11.00220202 42.82062059 -10 35 C-2.74 35 4.52 35 12 35 C12 43.51831647 10.7606448 48.56936106 5.75 55.3125 C-1.33008281 62.23167184 -9.120867 63.21907798 -18.625 63.3125 C-20.06552734 63.35600586 -20.06552734 63.35600586 -21.53515625 63.40039062 C-29.47928889 63.47045421 -34.90654887 61.37991345 -41.6875 57.4375 C-48.11405722 50.6635613 -50.72275041 43.48221717 -50.67382812 34.23046875 C-50.6187207 32.56951172 -50.6187207 32.56951172 -50.5625 30.875 C-50.56056641 29.75996094 -50.55863281 28.64492187 -50.55664062 27.49609375 C-50.40980117 18.2615235 -49.14500252 10.40883602 -42.66796875 3.5 C-31.27494563 -6.74571634 -13.1765085 -6.53988234 0 0 Z " fill="#F9F9F9" transform="translate(355,222)"/>
<path d="M0 0 C7.26 0 14.52 0 22 0 C22 15.84 22 31.68 22 48 C29.92 48 37.84 48 46 48 C46 53.28 46 58.56 46 64 C30.82 64 15.64 64 0 64 C0 42.88 0 21.76 0 0 Z " fill="#FEFEFE" transform="translate(196,220)"/>
<path d="M0 0 C2.43119623 1.87015094 3.64069173 3.28138345 5 6 C5.29125335 9.26404619 5.27787486 12.53696174 5.3125 15.8125 C5.34150391 16.71548828 5.37050781 17.61847656 5.40039062 18.54882812 C5.44177469 22.88142182 5.42240548 25.3145709 3.10546875 29.07421875 C0.34124595 31.60253385 -0.57952773 31.96106738 -4.375 32.3125 C-8 32 -8 32 -10.375 30.125 C-13.8456633 25.58644031 -13.29338211 21.22638664 -13.375 15.6875 C-13.41238281 14.73681641 -13.44976562 13.78613281 -13.48828125 12.80664062 C-13.54735706 8.11011351 -13.55072862 5.76021404 -10.73046875 1.8671875 C-6.61141273 -0.94956325 -4.90353611 -0.70050516 0 0 Z " fill="#030303" transform="translate(277,236)"/>
<path d="M0 0 C2.12472576 -0.05386629 4.24983652 -0.09273071 6.375 -0.125 C7.55835938 -0.14820313 8.74171875 -0.17140625 9.9609375 -0.1953125 C13 0 13 0 15 2 C15.3125 5.5 15.3125 5.5 15 9 C11.47320901 11.35119399 9.97120515 11.21443452 5.8125 11.125 C4.72582031 11.10695313 3.63914063 11.08890625 2.51953125 11.0703125 C1.27236328 11.03550781 1.27236328 11.03550781 0 11 C0 7.37 0 3.74 0 0 Z " fill="#050505" transform="translate(157,258)"/>
<path d="M0 0 C1.95825873 -0.02694851 3.91662226 -0.04637218 5.875 -0.0625 C6.96554688 -0.07410156 8.05609375 -0.08570313 9.1796875 -0.09765625 C12 0 12 0 14 1 C14.125 4.375 14.125 4.375 14 8 C12 10 12 10 9.1796875 10.1953125 C8.08914062 10.17210937 6.99859375 10.14890625 5.875 10.125 C4.77929688 10.10695312 3.68359375 10.08890625 2.5546875 10.0703125 C1.71164063 10.04710937 0.86859375 10.02390625 0 10 C0 6.7 0 3.4 0 0 Z " fill="#050505" transform="translate(157,235)"/>
</svg>
